<svg xmlns="http://www.w3.org/2000/svg" viewBox="0 0 53 44" width="53" height="44">
	<style>
		tspan { white-space:pre }
		.shp0 { fill: #d4d4d4 } 
	</style>
	<g id="Content">
		<g id="Clients">
			<g id="1">
				<path id="Composite Path" class="shp0" d="M20.3 0C18.69 1.03 16.67 2.36 14.29 4C11.89 5.63 9.62 7.61 7.5 9.93C5.41 12.2 3.63 14.8 2.19 17.7C0.72 20.6 0 23.8 0 27.33C0 32.31 0.96 36.35 2.89 39.4C4.82 42.47 8.03 44 12.51 44C15.37 44 17.62 43.01 19.28 41.01C20.92 39.04 21.74 36.89 21.74 34.59C21.74 31.37 20.85 28.94 19.07 27.26C17.28 25.59 14.86 24.75 11.76 24.75L8.15 24.75C8.45 21.96 8.96 19.66 9.73 17.87C10.47 16.11 11.55 14.42 12.95 12.78C14.46 11.06 15.95 9.67 17.39 8.62C18.83 7.58 20.75 6.32 23.1 4.86L20.3 0L20.3 0ZM50.2 0C48.58 1.03 46.57 2.36 44.19 4C41.79 5.63 39.52 7.61 37.39 9.93C35.31 12.2 33.53 14.8 32.08 17.7C30.62 20.6 29.9 23.8 29.9 27.33C29.9 32.31 30.85 36.35 32.79 39.4C34.72 42.47 37.92 44 42.4 44C45.27 44 47.52 43.01 49.18 41.01C50.81 39.04 51.64 36.89 51.64 34.59C51.64 31.37 50.75 28.94 48.97 27.26C47.18 25.59 44.76 24.75 41.66 24.75L38.05 24.75C38.35 21.96 38.86 19.68 39.58 17.92C40.3 16.18 41.41 14.46 42.85 12.78C44.36 11.06 45.84 9.67 47.29 8.62C48.73 7.58 50.64 6.32 53 4.86L50.2 0L50.2 0Z" />
			</g>
		</g>
	</g>
</svg>